<?xml version="1.0" encoding="UTF-8"?>
<svg id="Layer_2" data-name="Layer 2" xmlns="http://www.w3.org/2000/svg" viewBox="0 0 70.5 59.89">
  <defs>
    <style>
      .cls-1 {
        fill: #ed5823;
      }
    </style>
  </defs>
  <g id="Layer_1-2" data-name="Layer 1">
    <g>
      <path class="cls-1" d="M46.32,0h-29.81c-4.11,0-7.64,2.93-8.39,6.97L.15,49.8c-.98,5.25,3.05,10.09,8.39,10.09h29.81c4.11,0,7.64-2.93,8.39-6.97l7.98-42.83c.98-5.25-3.05-10.09-8.39-10.09ZM38.19,49.62h0c-.16.89-.93,1.53-1.84,1.53H12.14c-1.16,0-2.04-1.05-1.84-2.2h0c.16-.89.93-1.53,1.84-1.53h24.22c1.16,0,2.04,1.05,1.84,2.2ZM40.53,36.73h0c-.16.89-.93,1.53-1.84,1.53H14.48c-1.16,0-2.04-1.05-1.84-2.2h0c.16-.89.93-1.53,1.84-1.53h24.22c1.16,0,2.04,1.05,1.84,2.2ZM42.87,23.83c-.16.89-.93,1.53-1.84,1.53h-24.22c-1.16,0-2.04-1.05-1.84-2.2h0c.16-.89.93-1.53,1.84-1.53h24.22c1.16,0,2.04,1.05,1.84,2.2ZM45.21,10.93c-.16.89-.93,1.53-1.84,1.53h-24.22c-1.16,0-2.04-1.05-1.84-2.2.16-.89.93-1.53,1.84-1.53h24.22c1.16,0,2.04,1.05,1.84,2.2Z"/>
      <path class="cls-1" d="M69.94,29.12l-12.89-15.23-6.24,33.53,18.8-14.88c1.06-.84,1.21-2.38.34-3.41Z"/>
    </g>
  </g>
</svg>